<?xml version="1.0" standalone="no"?>
<!DOCTYPE svg PUBLIC "-//W3C//DTD SVG 20010904//EN"
 "http://www.w3.org/TR/2001/REC-SVG-20010904/DTD/svg10.dtd">
<svg version="1.0" xmlns="http://www.w3.org/2000/svg"
 width="321.000000pt" height="320.000000pt" viewBox="0 0 321.000000 320.000000"
 preserveAspectRatio="xMidYMid meet">

<g transform="translate(0.000000,320.000000) scale(0.100000,-0.100000)"
fill="#000000" stroke="none">
<path d="M1400 3084 c-14 -3 -61 -12 -105 -20 -596 -115 -1059 -593 -1172
-1209 -25 -136 -23 -389 5 -530 51 -261 151 -468 326 -674 169 -200 426 -375
666 -455 161 -53 270 -69 470 -69 200 0 309 16 470 69 365 121 712 427 877
774 95 200 137 391 137 630 0 249 -40 430 -139 637 -208 435 -570 721 -1045
828 -73 16 -428 30 -490 19z m411 -279 c300 -50 554 -204 755 -462 111 -141
186 -304 219 -474 106 -561 -151 -1097 -644 -1344 -286 -144 -640 -169 -943
-66 -588 199 -921 785 -803 1410 44 228 165 443 351 622 282 270 657 380 1065
314z"/>
<path d="M1190 2370 l0 -120 109 0 108 0 37 -95 c20 -52 36 -102 36 -111 0
-22 -21 -58 -335 -579 -277 -458 -305 -506 -305 -525 0 -6 54 -10 158 -10
l157 1 27 39 c15 21 95 146 179 277 174 273 261 402 271 403 4 0 10 -10 13
-22 4 -13 58 -156 120 -318 62 -162 124 -326 138 -365 24 -66 27 -70 54 -68
47 4 282 71 380 109 l91 35 -37 110 c-21 60 -42 114 -47 119 -5 5 -54 -7 -116
-28 -59 -20 -110 -34 -113 -30 -3 3 -32 77 -64 165 -32 87 -118 311 -191 498
-73 187 -157 405 -186 485 l-52 145 -216 3 -216 2 0 -120z"/>
</g>
</svg>
